<svg xmlns="http://www.w3.org/2000/svg" viewBox="0 0 32 32" shape-rendering="crispEdges">
<rect x="8" y="6" width="2" height="1" fill="#16240f"/>
<rect x="11" y="6" width="10" height="1" fill="#16240f"/>
<rect x="22" y="6" width="2" height="1" fill="#16240f"/>
<rect x="7" y="7" width="1" height="1" fill="#16240f"/>
<rect x="8" y="7" width="2" height="1" fill="#f7f4e6"/>
<rect x="10" y="7" width="1" height="1" fill="#16240f"/>
<rect x="11" y="7" width="10" height="1" fill="#57a044"/>
<rect x="21" y="7" width="1" height="1" fill="#16240f"/>
<rect x="22" y="7" width="2" height="1" fill="#f7f4e6"/>
<rect x="24" y="7" width="1" height="1" fill="#16240f"/>
<rect x="7" y="8" width="1" height="1" fill="#16240f"/>
<rect x="8" y="8" width="2" height="1" fill="#16240f"/>
<rect x="10" y="8" width="1" height="1" fill="#f7f4e6"/>
<rect x="11" y="8" width="10" height="1" fill="#57a044"/>
<rect x="21" y="8" width="1" height="1" fill="#f7f4e6"/>
<rect x="22" y="8" width="2" height="1" fill="#16240f"/>
<rect x="24" y="8" width="1" height="1" fill="#16240f"/>
<rect x="7" y="9" width="1" height="1" fill="#16240f"/>
<rect x="8" y="9" width="2" height="1" fill="#16240f"/>
<rect x="10" y="9" width="1" height="1" fill="#f7f4e6"/>
<rect x="11" y="9" width="10" height="1" fill="#57a044"/>
<rect x="21" y="9" width="1" height="1" fill="#f7f4e6"/>
<rect x="22" y="9" width="2" height="1" fill="#16240f"/>
<rect x="24" y="9" width="1" height="1" fill="#16240f"/>
<rect x="7" y="10" width="1" height="1" fill="#16240f"/>
<rect x="8" y="10" width="2" height="1" fill="#f7f4e6"/>
<rect x="10" y="10" width="12" height="1" fill="#57a044"/>
<rect x="22" y="10" width="2" height="1" fill="#f7f4e6"/>
<rect x="24" y="10" width="1" height="1" fill="#16240f"/>
<rect x="7" y="11" width="1" height="1" fill="#16240f"/>
<rect x="8" y="11" width="16" height="1" fill="#57a044"/>
<rect x="24" y="11" width="1" height="1" fill="#16240f"/>
<rect x="7" y="12" width="1" height="1" fill="#16240f"/>
<rect x="8" y="12" width="16" height="1" fill="#57a044"/>
<rect x="24" y="12" width="1" height="1" fill="#16240f"/>
<rect x="8" y="13" width="1" height="1" fill="#16240f"/>
<rect x="9" y="13" width="14" height="1" fill="#57a044"/>
<rect x="23" y="13" width="1" height="1" fill="#16240f"/>
<rect x="6" y="14" width="2" height="1" fill="#16240f"/>
<rect x="8" y="14" width="1" height="1" fill="#57a044"/>
<rect x="9" y="14" width="14" height="1" fill="#8d4038"/>
<rect x="23" y="14" width="1" height="1" fill="#57a044"/>
<rect x="24" y="14" width="2" height="1" fill="#16240f"/>
<rect x="5" y="15" width="1" height="1" fill="#16240f"/>
<rect x="6" y="15" width="20" height="1" fill="#57a044"/>
<rect x="26" y="15" width="1" height="1" fill="#16240f"/>
<rect x="4" y="16" width="1" height="1" fill="#16240f"/>
<rect x="5" y="16" width="22" height="1" fill="#57a044"/>
<rect x="27" y="16" width="1" height="1" fill="#16240f"/>
<rect x="3" y="17" width="1" height="1" fill="#16240f"/>
<rect x="4" y="17" width="24" height="1" fill="#57a044"/>
<rect x="28" y="17" width="1" height="1" fill="#16240f"/>
<rect x="2" y="18" width="1" height="1" fill="#16240f"/>
<rect x="3" y="18" width="9" height="1" fill="#57a044"/>
<rect x="12" y="18" width="8" height="1" fill="#78c25e"/>
<rect x="20" y="18" width="9" height="1" fill="#57a044"/>
<rect x="29" y="18" width="1" height="1" fill="#16240f"/>
<rect x="2" y="19" width="1" height="1" fill="#16240f"/>
<rect x="3" y="19" width="7" height="1" fill="#57a044"/>
<rect x="10" y="19" width="12" height="1" fill="#78c25e"/>
<rect x="22" y="19" width="7" height="1" fill="#57a044"/>
<rect x="29" y="19" width="1" height="1" fill="#16240f"/>
<rect x="2" y="20" width="1" height="1" fill="#16240f"/>
<rect x="3" y="20" width="5" height="1" fill="#57a044"/>
<rect x="8" y="20" width="16" height="1" fill="#78c25e"/>
<rect x="24" y="20" width="5" height="1" fill="#57a044"/>
<rect x="29" y="20" width="1" height="1" fill="#16240f"/>
<rect x="2" y="21" width="1" height="1" fill="#16240f"/>
<rect x="3" y="21" width="5" height="1" fill="#57a044"/>
<rect x="8" y="21" width="16" height="1" fill="#78c25e"/>
<rect x="24" y="21" width="5" height="1" fill="#57a044"/>
<rect x="29" y="21" width="1" height="1" fill="#16240f"/>
<rect x="2" y="22" width="1" height="1" fill="#16240f"/>
<rect x="3" y="22" width="4" height="1" fill="#57a044"/>
<rect x="7" y="22" width="18" height="1" fill="#78c25e"/>
<rect x="25" y="22" width="4" height="1" fill="#57a044"/>
<rect x="29" y="22" width="1" height="1" fill="#16240f"/>
<rect x="3" y="23" width="1" height="1" fill="#16240f"/>
<rect x="4" y="23" width="4" height="1" fill="#57a044"/>
<rect x="8" y="23" width="16" height="1" fill="#78c25e"/>
<rect x="24" y="23" width="4" height="1" fill="#57a044"/>
<rect x="28" y="23" width="1" height="1" fill="#16240f"/>
<rect x="2" y="24" width="1" height="1" fill="#16240f"/>
<rect x="3" y="24" width="1" height="1" fill="#3a7030"/>
<rect x="4" y="24" width="4" height="1" fill="#57a044"/>
<rect x="8" y="24" width="16" height="1" fill="#78c25e"/>
<rect x="24" y="24" width="4" height="1" fill="#57a044"/>
<rect x="28" y="24" width="1" height="1" fill="#3a7030"/>
<rect x="29" y="24" width="1" height="1" fill="#16240f"/>
<rect x="1" y="25" width="1" height="1" fill="#16240f"/>
<rect x="2" y="25" width="3" height="1" fill="#3a7030"/>
<rect x="5" y="25" width="5" height="1" fill="#57a044"/>
<rect x="10" y="25" width="2" height="1" fill="#78c25e"/>
<rect x="12" y="25" width="8" height="1" fill="#b3dd93"/>
<rect x="20" y="25" width="2" height="1" fill="#78c25e"/>
<rect x="22" y="25" width="5" height="1" fill="#57a044"/>
<rect x="27" y="25" width="3" height="1" fill="#3a7030"/>
<rect x="30" y="25" width="1" height="1" fill="#16240f"/>
<rect x="1" y="26" width="1" height="1" fill="#16240f"/>
<rect x="2" y="26" width="4" height="1" fill="#3a7030"/>
<rect x="6" y="26" width="4" height="1" fill="#57a044"/>
<rect x="10" y="26" width="12" height="1" fill="#b3dd93"/>
<rect x="22" y="26" width="4" height="1" fill="#57a044"/>
<rect x="26" y="26" width="4" height="1" fill="#3a7030"/>
<rect x="30" y="26" width="1" height="1" fill="#16240f"/>
<rect x="1" y="27" width="1" height="1" fill="#16240f"/>
<rect x="2" y="27" width="6" height="1" fill="#3a7030"/>
<rect x="8" y="27" width="1" height="1" fill="#57a044"/>
<rect x="9" y="27" width="2" height="1" fill="#16240f"/>
<rect x="11" y="27" width="10" height="1" fill="#b3dd93"/>
<rect x="21" y="27" width="2" height="1" fill="#16240f"/>
<rect x="23" y="27" width="1" height="1" fill="#57a044"/>
<rect x="24" y="27" width="6" height="1" fill="#3a7030"/>
<rect x="30" y="27" width="1" height="1" fill="#16240f"/>
<rect x="2" y="28" width="2" height="1" fill="#16240f"/>
<rect x="4" y="28" width="3" height="1" fill="#3a7030"/>
<rect x="7" y="28" width="2" height="1" fill="#16240f"/>
<rect x="11" y="28" width="10" height="1" fill="#16240f"/>
<rect x="23" y="28" width="2" height="1" fill="#16240f"/>
<rect x="25" y="28" width="3" height="1" fill="#3a7030"/>
<rect x="28" y="28" width="2" height="1" fill="#16240f"/>
<rect x="4" y="29" width="3" height="1" fill="#16240f"/>
<rect x="25" y="29" width="3" height="1" fill="#16240f"/>
</svg>
