<svg xmlns="http://www.w3.org/2000/svg" viewBox="0 0 32 32" shape-rendering="crispEdges">
<rect x="13" y="5" width="5" height="1" fill="#16283a"/>
<rect x="12" y="6" width="1" height="1" fill="#16283a"/>
<rect x="13" y="6" width="3" height="1" fill="#98c6ea"/>
<rect x="16" y="6" width="2" height="1" fill="#6ba4d8"/>
<rect x="18" y="6" width="1" height="1" fill="#16283a"/>
<rect x="11" y="7" width="1" height="1" fill="#16283a"/>
<rect x="12" y="7" width="5" height="1" fill="#98c6ea"/>
<rect x="17" y="7" width="2" height="1" fill="#6ba4d8"/>
<rect x="19" y="7" width="1" height="1" fill="#16283a"/>
<rect x="10" y="8" width="1" height="1" fill="#16283a"/>
<rect x="11" y="8" width="3" height="1" fill="#d8ecf9"/>
<rect x="14" y="8" width="3" height="1" fill="#98c6ea"/>
<rect x="17" y="8" width="3" height="1" fill="#6ba4d8"/>
<rect x="20" y="8" width="1" height="1" fill="#16283a"/>
<rect x="9" y="9" width="1" height="1" fill="#16283a"/>
<rect x="10" y="9" width="4" height="1" fill="#d8ecf9"/>
<rect x="14" y="9" width="3" height="1" fill="#98c6ea"/>
<rect x="17" y="9" width="4" height="1" fill="#6ba4d8"/>
<rect x="21" y="9" width="1" height="1" fill="#16283a"/>
<rect x="9" y="10" width="1" height="1" fill="#16283a"/>
<rect x="10" y="10" width="5" height="1" fill="#d8ecf9"/>
<rect x="15" y="10" width="3" height="1" fill="#98c6ea"/>
<rect x="18" y="10" width="3" height="1" fill="#6ba4d8"/>
<rect x="21" y="10" width="1" height="1" fill="#16283a"/>
<rect x="8" y="11" width="1" height="1" fill="#16283a"/>
<rect x="9" y="11" width="6" height="1" fill="#d8ecf9"/>
<rect x="15" y="11" width="3" height="1" fill="#98c6ea"/>
<rect x="18" y="11" width="4" height="1" fill="#6ba4d8"/>
<rect x="22" y="11" width="1" height="1" fill="#16283a"/>
<rect x="8" y="12" width="1" height="1" fill="#16283a"/>
<rect x="9" y="12" width="6" height="1" fill="#d8ecf9"/>
<rect x="15" y="12" width="3" height="1" fill="#98c6ea"/>
<rect x="18" y="12" width="4" height="1" fill="#6ba4d8"/>
<rect x="22" y="12" width="1" height="1" fill="#16283a"/>
<rect x="7" y="13" width="1" height="1" fill="#16283a"/>
<rect x="8" y="13" width="15" height="1" fill="#2f5f8c"/>
<rect x="23" y="13" width="1" height="1" fill="#16283a"/>
<rect x="7" y="14" width="1" height="1" fill="#16283a"/>
<rect x="8" y="14" width="15" height="1" fill="#4b83b8"/>
<rect x="23" y="14" width="1" height="1" fill="#16283a"/>
<rect x="7" y="15" width="1" height="1" fill="#16283a"/>
<rect x="8" y="15" width="9" height="1" fill="#98c6ea"/>
<rect x="17" y="15" width="5" height="1" fill="#6ba4d8"/>
<rect x="22" y="15" width="1" height="1" fill="#4b83b8"/>
<rect x="23" y="15" width="1" height="1" fill="#16283a"/>
<rect x="6" y="16" width="1" height="1" fill="#16283a"/>
<rect x="7" y="16" width="1" height="1" fill="#6ba4d8"/>
<rect x="8" y="16" width="8" height="1" fill="#98c6ea"/>
<rect x="16" y="16" width="5" height="1" fill="#6ba4d8"/>
<rect x="21" y="16" width="3" height="1" fill="#4b83b8"/>
<rect x="24" y="16" width="1" height="1" fill="#16283a"/>
<rect x="6" y="17" width="1" height="1" fill="#16283a"/>
<rect x="7" y="17" width="1" height="1" fill="#6ba4d8"/>
<rect x="8" y="17" width="7" height="1" fill="#98c6ea"/>
<rect x="15" y="17" width="6" height="1" fill="#6ba4d8"/>
<rect x="21" y="17" width="3" height="1" fill="#4b83b8"/>
<rect x="24" y="17" width="1" height="1" fill="#16283a"/>
<rect x="6" y="18" width="1" height="1" fill="#16283a"/>
<rect x="7" y="18" width="3" height="1" fill="#6ba4d8"/>
<rect x="10" y="18" width="4" height="1" fill="#98c6ea"/>
<rect x="14" y="18" width="6" height="1" fill="#6ba4d8"/>
<rect x="20" y="18" width="4" height="1" fill="#4b83b8"/>
<rect x="24" y="18" width="1" height="1" fill="#16283a"/>
<rect x="6" y="19" width="1" height="1" fill="#16283a"/>
<rect x="7" y="19" width="17" height="1" fill="#2f5f8c"/>
<rect x="24" y="19" width="1" height="1" fill="#16283a"/>
<rect x="6" y="20" width="1" height="1" fill="#16283a"/>
<rect x="7" y="20" width="17" height="1" fill="#4b83b8"/>
<rect x="24" y="20" width="1" height="1" fill="#16283a"/>
<rect x="6" y="21" width="1" height="1" fill="#16283a"/>
<rect x="7" y="21" width="12" height="1" fill="#6ba4d8"/>
<rect x="19" y="21" width="5" height="1" fill="#4b83b8"/>
<rect x="24" y="21" width="1" height="1" fill="#16283a"/>
<rect x="6" y="22" width="1" height="1" fill="#16283a"/>
<rect x="7" y="22" width="11" height="1" fill="#6ba4d8"/>
<rect x="18" y="22" width="6" height="1" fill="#4b83b8"/>
<rect x="24" y="22" width="1" height="1" fill="#16283a"/>
<rect x="7" y="23" width="1" height="1" fill="#16283a"/>
<rect x="8" y="23" width="8" height="1" fill="#6ba4d8"/>
<rect x="16" y="23" width="7" height="1" fill="#4b83b8"/>
<rect x="23" y="23" width="1" height="1" fill="#16283a"/>
<rect x="7" y="24" width="1" height="1" fill="#16283a"/>
<rect x="8" y="24" width="2" height="1" fill="#4b83b8"/>
<rect x="10" y="24" width="4" height="1" fill="#6ba4d8"/>
<rect x="14" y="24" width="9" height="1" fill="#4b83b8"/>
<rect x="23" y="24" width="1" height="1" fill="#16283a"/>
<rect x="8" y="25" width="1" height="1" fill="#16283a"/>
<rect x="9" y="25" width="13" height="1" fill="#2f5f8c"/>
<rect x="22" y="25" width="1" height="1" fill="#16283a"/>
<rect x="9" y="26" width="1" height="1" fill="#16283a"/>
<rect x="10" y="26" width="11" height="1" fill="#4b83b8"/>
<rect x="21" y="26" width="1" height="1" fill="#16283a"/>
<rect x="10" y="27" width="2" height="1" fill="#16283a"/>
<rect x="12" y="27" width="7" height="1" fill="#4b83b8"/>
<rect x="19" y="27" width="2" height="1" fill="#16283a"/>
<rect x="12" y="28" width="7" height="1" fill="#16283a"/>
</svg>
